<svg xmlns="http://www.w3.org/2000/svg" viewBox="0 0 500 500"><g id="freepik--background-complete--inject-2"><rect y="382.4" width="500" height="0.25" style="fill:#ebebeb"></rect><rect x="416.78" y="398.49" width="33.12" height="0.25" style="fill:#ebebeb"></rect><rect x="322.53" y="401.21" width="8.69" height="0.25" style="fill:#ebebeb"></rect><rect x="396.59" y="389.21" width="19.19" height="0.25" style="fill:#ebebeb"></rect><rect x="52.46" y="390.89" width="43.19" height="0.25" style="fill:#ebebeb"></rect><rect x="104.56" y="390.89" width="6.33" height="0.25" style="fill:#ebebeb"></rect><rect x="131.47" y="395.11" width="93.68" height="0.25" style="fill:#ebebeb"></rect><path d="M237,337.8H43.91a5.71,5.71,0,0,1-5.7-5.71V60.66A5.71,5.71,0,0,1,43.91,55H237a5.71,5.71,0,0,1,5.71,5.71V332.09A5.71,5.71,0,0,1,237,337.8ZM43.91,55.2a5.46,5.46,0,0,0-5.45,5.46V332.09a5.46,5.46,0,0,0,5.45,5.46H237a5.47,5.47,0,0,0,5.46-5.46V60.66A5.47,5.47,0,0,0,237,55.2Z" style="fill:#ebebeb"></path><path d="M453.31,337.8H260.21a5.72,5.72,0,0,1-5.71-5.71V60.66A5.72,5.72,0,0,1,260.21,55h193.1A5.71,5.71,0,0,1,459,60.66V332.09A5.71,5.71,0,0,1,453.31,337.8ZM260.21,55.2a5.47,5.47,0,0,0-5.46,5.46V332.09a5.47,5.47,0,0,0,5.46,5.46h193.1a5.47,5.47,0,0,0,5.46-5.46V60.66a5.47,5.47,0,0,0-5.46-5.46Z" style="fill:#ebebeb"></path><rect x="358.99" y="130.01" width="14.17" height="44.11" style="fill:#e6e6e6"></rect><polygon points="411.57 174.12 364.55 174.12 357.45 122.49 404.47 122.49 411.57 174.12" style="fill:#f0f0f0"></polygon><polygon points="416.66 174.12 368.1 174.12 361 122.49 409.56 122.49 416.66 174.12" style="fill:#f5f5f5"></polygon><polygon points="371.61 170.05 365.63 126.56 406.05 126.56 412.04 170.05 371.61 170.05" style="fill:#fff"></polygon><path d="M379.6,156.88l-2.25-16.32a3,3,0,0,1,3-3.46h14.69a3,3,0,0,1,3,2.63l2.24,16.33a3,3,0,0,1-3,3.45H382.61A3,3,0,0,1,379.6,156.88Z" style="fill:#f5f5f5"></path><rect x="73.16" y="81.68" width="211.79" height="130.65" style="fill:#e6e6e6"></rect><rect x="75.7" y="81.68" width="214.69" height="130.65" style="fill:#f0f0f0"></rect><rect x="73.16" y="212.34" width="211.79" height="10.11" style="fill:#e6e6e6"></rect><rect x="84.76" y="212.34" width="214.69" height="10.11" style="fill:#f0f0f0"></rect><rect x="125.33" y="47.28" width="115.42" height="199.45" transform="translate(330.05 -36.03) rotate(90)" style="fill:#fafafa"></rect><polygon points="97.96 204.72 142.67 89.3 163.77 89.3 119.06 204.72 97.96 204.72" style="fill:#fff"></polygon><polygon points="123.6 204.72 168.31 89.3 176.53 89.3 131.82 204.72 123.6 204.72" style="fill:#fff"></polygon><polygon points="201.82 204.72 246.53 89.3 254.75 89.3 210.05 204.72 201.82 204.72" style="fill:#fff"></polygon><rect x="224.57" y="146.53" width="115.42" height="0.97" transform="translate(429.29 -135.27) rotate(90)" style="fill:#e6e6e6"></rect><rect x="400.66" y="174.12" width="44.84" height="208.28" style="fill:#e6e6e6"></rect><polygon points="440.99 382.4 445.5 382.4 445.5 369.57 436.26 369.57 440.99 382.4" style="fill:#f0f0f0"></polygon><rect x="322.09" y="174.12" width="44.84" height="208.28" style="fill:#e6e6e6"></rect><rect x="362.99" y="174.12" width="82.51" height="200.41" style="fill:#f0f0f0"></rect><polygon points="367.5 382.4 362.99 382.4 362.99 369.57 372.23 369.57 367.5 382.4" style="fill:#f0f0f0"></polygon><rect x="366.49" y="177.79" width="75.51" height="94.54" style="fill:#e6e6e6"></rect><path d="M412.42,185.15H396.07a25.87,25.87,0,0,1-18.78-8.08H431.2A25.84,25.84,0,0,1,412.42,185.15Z" style="fill:#f0f0f0"></path><rect x="366.49" y="276.16" width="75.51" height="94.54" style="fill:#e6e6e6"></rect><path d="M412.42,283.52H396.07a25.87,25.87,0,0,1-18.78-8.08H431.2A25.84,25.84,0,0,1,412.42,283.52Z" style="fill:#f0f0f0"></path><polygon points="129.5 239.89 204.12 239.89 214.94 283.96 140.31 283.96 129.5 239.89" style="fill:#e6e6e6"></polygon><polygon points="140.31 283.96 140.62 286.39 215.24 286.39 214.94 283.96 140.31 283.96" style="fill:#e6e6e6"></polygon><polygon points="131.8 239.89 206.42 239.89 217.24 283.96 142.61 283.96 131.8 239.89" style="fill:#f0f0f0"></polygon><polygon points="144.19 281.94 134.36 241.9 204.84 241.9 214.67 281.94 144.19 281.94" style="fill:#fff"></polygon><polygon points="162.06 283.96 162.36 286.39 244.53 286.39 244.23 283.96 162.06 283.96" style="fill:#f0f0f0"></polygon><rect x="254.34" y="286.39" width="8.94" height="96" style="fill:#e6e6e6"></rect><rect x="259.9" y="286.39" width="6.21" height="96" style="fill:#f0f0f0"></rect><rect x="152.82" y="286.39" width="115.21" height="10.99" transform="translate(420.86 583.77) rotate(180)" style="fill:#f0f0f0"></rect><rect x="139.88" y="297.38" width="8.94" height="85.01" style="fill:#e6e6e6"></rect><rect x="145.43" y="297.38" width="6.21" height="85.01" style="fill:#f0f0f0"></rect><rect x="83.29" y="297.38" width="8.94" height="85.01" style="fill:#e6e6e6"></rect><rect x="88.85" y="297.38" width="6.21" height="85.01" style="fill:#f0f0f0"></rect><rect x="197.76" y="297.38" width="8.94" height="85.01" style="fill:#e6e6e6"></rect><rect x="203.31" y="297.38" width="6.21" height="85.01" style="fill:#f0f0f0"></rect><rect x="83.29" y="286.39" width="69.53" height="10.99" style="fill:#e6e6e6"></rect><path d="M292.34,382.4h-2.17L284,351.76l-1.09-5.37L276.07,313h-26L236,382.4H233.8l14.36-70.68a1.05,1.05,0,0,1,1-.85H277a1,1,0,0,1,1,.85l6,29.32L285,346.4Z" style="fill:#f0f0f0"></path><path d="M334.09,382.4h-2.18L317.81,313h-26L285,346.4,284,351.76l-6.23,30.64h-2.17l7.31-36,1.08-5.35,6-29.32a1.06,1.06,0,0,1,1-.85h27.75a1.05,1.05,0,0,1,1,.85Z" style="fill:#f0f0f0"></path><path d="M270,311.93h47.78c9.12,0,14.18-6.2,16.76-16.42l1.26-5.84a12,12,0,0,0-11.69-14.81h-30c-6.2,0-7.84,1.48-12.13,10.82S270,311.93,270,311.93Z" style="fill:#f0f0f0"></path><path d="M242.75,302.77h50.92a2.39,2.39,0,0,1,2.39,2.39v.22a6.54,6.54,0,0,1-6.54,6.54H242.75a0,0,0,0,1,0,0v-9.16a0,0,0,0,1,0,0Z" transform="translate(538.8 614.7) rotate(-180)" style="fill:#f0f0f0"></path></g><g id="freepik--Shadow--inject-2"><ellipse id="freepik--path--inject-2" cx="250" cy="416.24" rx="193.89" ry="11.32" style="fill:#f5f5f5"></ellipse></g><g id="freepik--Account--inject-2"><path d="M288.63,109.67H143.3a11.37,11.37,0,0,0-11.43,12L145.5,404.24a12.77,12.77,0,0,0,12.58,12H303.41a11.36,11.36,0,0,0,11.42-12L301.21,121.67A12.77,12.77,0,0,0,288.63,109.67Z"></path><path d="M294,109.67H148.63a11.36,11.36,0,0,0-11.42,12l13.62,282.57a12.77,12.77,0,0,0,12.58,12H308.74a11.36,11.36,0,0,0,11.42-12L306.54,121.67A12.77,12.77,0,0,0,294,109.67Z" style="fill:#263238"></path><path d="M163,408.24a4.31,4.31,0,0,1-4.19-4L145.21,121.67a3.82,3.82,0,0,1,3.81-4H294.35a4.29,4.29,0,0,1,4.19,4l13.62,282.57a3.82,3.82,0,0,1-3.8,4Z" style="fill:#1C1559"></path><path d="M162.93,406.24a2.18,2.18,0,0,1-2.1-2L147.21,121.67a1.93,1.93,0,0,1,1.9-2H294.44a2.17,2.17,0,0,1,2.1,2l13.62,282.57a1.93,1.93,0,0,1-1.9,2Z" style="opacity:0.1"></path><g style="opacity:0.30000000000000004"><path d="M206.79,390H178a3.12,3.12,0,0,1-3.08-2.94l-2.1-43.71a2.81,2.81,0,0,1,2.83-3h28.84a3.1,3.1,0,0,1,3.07,2.93L209.63,387a2.82,2.82,0,0,1-2.84,3Zm-31.18-48.63a1.86,1.86,0,0,0-1.34.56,1.89,1.89,0,0,0-.5,1.37L175.88,387a2.11,2.11,0,0,0,2.08,2h28.83a1.83,1.83,0,0,0,1.84-1.94l-2.11-43.71a2.1,2.1,0,0,0-2.07-2Z" style="fill:#fafafa"></path><path d="M204.07,351.52H177a.5.5,0,0,1,0-1h27.1a.5.5,0,0,1,0,1Z" style="fill:#fafafa"></path><path d="M204.35,357.17H177.24a.51.51,0,0,1-.5-.5.5.5,0,0,1,.5-.5h27.11a.5.5,0,0,1,.5.5A.51.51,0,0,1,204.35,357.17Z" style="fill:#fafafa"></path><path d="M204.62,362.82H177.51a.51.51,0,0,1-.5-.5.5.5,0,0,1,.5-.5h27.11a.5.5,0,0,1,.5.5A.5.5,0,0,1,204.62,362.82Z" style="fill:#fafafa"></path><path d="M204.89,368.47h-27.1a.5.5,0,0,1-.5-.5.5.5,0,0,1,.5-.5h27.1a.5.5,0,0,1,.5.5A.5.5,0,0,1,204.89,368.47Z" style="fill:#fafafa"></path><path d="M205.16,374.12h-27.1a.5.5,0,0,1-.5-.5.5.5,0,0,1,.5-.5h27.1a.5.5,0,0,1,.5.5A.5.5,0,0,1,205.16,374.12Z" style="fill:#fafafa"></path><path d="M199.88,379.77H178.33a.5.5,0,0,1-.5-.5.5.5,0,0,1,.5-.5h21.55a.5.5,0,0,1,.5.5A.51.51,0,0,1,199.88,379.77Z" style="fill:#fafafa"></path></g><g style="opacity:0.30000000000000004"><path d="M224.94,229.63l-19.77,3.16a23,23,0,0,0-3-5.27,14.15,14.15,0,0,0-4.13-3l.74,15.5q16.49,4.34,22.19,9.16a22.26,22.26,0,0,1,8,16.45A21.81,21.81,0,0,1,227,276.37a24.37,24.37,0,0,1-6.25,8.15,25.07,25.07,0,0,1-8.37,4.74A41.27,41.27,0,0,1,201.28,291l.13,2.73a3.69,3.69,0,0,1-3.72,3.91h0a4.15,4.15,0,0,1-4.1-3.91l-.13-2.73a50.51,50.51,0,0,1-12.89-2.54,27.62,27.62,0,0,1-8.71-5.11A27,27,0,0,1,166,276.3a34,34,0,0,1-3.33-9.13l21.51-2.51q1.22,5.29,3,7.65a14.45,14.45,0,0,0,5.58,4.18l-.91-18.92a105.82,105.82,0,0,1-15.6-5.2,21.93,21.93,0,0,1-8.18-7.05,21.19,21.19,0,0,1-3.89-11.82,20.22,20.22,0,0,1,5.9-15.94q6.36-6.41,19.5-7.1l-.07-1.39a3.69,3.69,0,0,1,3.72-3.91h0a4.15,4.15,0,0,1,4.1,3.91l.07,1.39q12,.75,18.61,5.68A24.26,24.26,0,0,1,224.94,229.63Zm-34.7-5.35a9.41,9.41,0,0,0-4.63,2.79,5.88,5.88,0,0,0-1.15,3.93,6.86,6.86,0,0,0,1.56,4.12,10.7,10.7,0,0,0,4.89,2.93ZM200.61,277q4.5-1,6.5-3.36a7.24,7.24,0,0,0,1.86-5.24,7.43,7.43,0,0,0-2-4.65c-1.26-1.41-3.66-2.73-7.18-3.94Z" style="fill:#fafafa"></path></g><path d="M277.2,146.56h-99l9.65,200.11a32.4,32.4,0,0,0,32,30.54h99L309.21,177.1A32.38,32.38,0,0,0,277.2,146.56Z" style="opacity:0.2"></path><path d="M301.45,146.56H178.23a32.39,32.39,0,0,1,32,30.54L218.1,340a32.4,32.4,0,0,0,32,30.54h62.13A28.84,28.84,0,0,0,341.32,340L333.46,177.1A32.38,32.38,0,0,0,301.45,146.56Z" style="fill:#fafafa"></path><path d="M279.18,340a28.83,28.83,0,0,1-29.06,30.54H373.33A28.84,28.84,0,0,0,402.4,340Z" style="fill:#e6e6e6"></path><path d="M318.8,247.67H231.72a2.41,2.41,0,0,1-2.38-2.27h0a2.15,2.15,0,0,1,2.16-2.27h87.08A2.41,2.41,0,0,1,321,245.4h0A2.15,2.15,0,0,1,318.8,247.67Z" style="fill:#1C1559"></path><path d="M319.48,261.84H232.4a2.41,2.41,0,0,1-2.38-2.27h0a2.15,2.15,0,0,1,2.16-2.27h87.09a2.41,2.41,0,0,1,2.37,2.27h0A2.15,2.15,0,0,1,319.48,261.84Z" style="fill:#1C1559"></path><path d="M320.17,276H233.08a2.41,2.41,0,0,1-2.38-2.27h0a2.15,2.15,0,0,1,2.16-2.27H320a2.41,2.41,0,0,1,2.38,2.27h0A2.15,2.15,0,0,1,320.17,276Z" style="fill:#1C1559"></path><path d="M320.85,290.19H233.77a2.42,2.42,0,0,1-2.38-2.27h0a2.15,2.15,0,0,1,2.16-2.27h87.08a2.41,2.41,0,0,1,2.38,2.27h0A2.15,2.15,0,0,1,320.85,290.19Z" style="fill:#1C1559"></path><path d="M286.91,304.36H234.45a2.41,2.41,0,0,1-2.38-2.27h0a2.15,2.15,0,0,1,2.16-2.27h52.46a2.41,2.41,0,0,1,2.38,2.27h0A2.15,2.15,0,0,1,286.91,304.36Z" style="fill:#1C1559"></path><ellipse cx="272.9" cy="198.71" rx="26.71" ry="28.03" transform="translate(-59.92 255.19) rotate(-45.69)" style="fill:#1C1559"></ellipse><path d="M295.48,198.7a21.91,21.91,0,0,1-2.21,10.76A21.27,21.27,0,0,1,274,221.28a23.86,23.86,0,0,1-20.42-11.82,23.24,23.24,0,0,1-3.25-10.76,21.32,21.32,0,0,1,21.49-22.58A24,24,0,0,1,295.48,198.7Z" style="fill:#fff"></path><path d="M293.27,209.46A21.27,21.27,0,0,1,274,221.28a23.86,23.86,0,0,1-20.42-11.82,34.2,34.2,0,0,1,19.56-6A37,37,0,0,1,293.27,209.46Z" style="fill:#1C1559;opacity:0.4"></path><ellipse cx="272.53" cy="190.98" rx="9.82" ry="10.3" transform="translate(-54.51 252.57) rotate(-45.69)" style="fill:#1C1559;opacity:0.4"></ellipse></g><g id="freepik--character-male--inject-2"><polygon points="356.76 408.74 349.42 408.74 348.68 391.72 356.03 391.72 356.76 408.74" style="fill:#b55b52"></polygon><polygon points="348.69 391.73 349.06 400.5 356.41 400.5 356.03 391.73 348.69 391.73" style="opacity:0.2"></polygon><polygon points="419.29 388.8 412.31 391.08 403.52 376.05 410.51 373.77 419.29 388.8" style="fill:#b55b52"></polygon><polygon points="410.51 373.77 403.52 376.05 408.06 383.8 415.04 381.52 410.51 373.77" style="opacity:0.2"></polygon><path d="M381.6,162.92c.91,1.11,1.68,2.1,2.47,3.19s1.54,2.13,2.29,3.21c1.48,2.17,2.9,4.39,4.23,6.68a74.91,74.91,0,0,1,6.73,14.71l.17.5.08.26.11.41.2.82.11.75a15,15,0,0,1,.11,2.71,27.38,27.38,0,0,1-.66,4.53,53,53,0,0,1-2.51,7.82,90.83,90.83,0,0,1-7.16,14l-5-2.39c1.5-4.69,3-9.49,4.1-14.16a56.82,56.82,0,0,0,1.3-6.84,17.35,17.35,0,0,0,.11-3,6,6,0,0,0-.14-1.06l-.05-.18a.93.93,0,0,1-.05-.1l0,0-.08-.19-.16-.39-.67-1.57-.75-1.56c-.5-1-1.05-2.08-1.6-3.12-1.14-2.06-2.37-4.11-3.65-6.15s-2.64-4-4-6-2.85-4-4.2-5.81Z" style="fill:#b55b52"></path><path d="M383.23,218.88l-2.87,6.35h8.21s1.31-4.82-1.67-6.77Z" style="fill:#b55b52"></path><polygon points="381.32 232.37 388.94 230.9 388.57 225.23 380.36 225.23 381.32 232.37" style="fill:#b55b52"></polygon><path d="M345.22,130.69c0,.6-.31,1.08-.7,1.08s-.7-.48-.7-1.08.32-1.07.7-1.07S345.22,130.1,345.22,130.69Z" style="fill:#263238"></path><path d="M345,131.77a21,21,0,0,1-2.83,5.06,3.43,3.43,0,0,0,2.83.54Z" style="fill:#a02724"></path><path d="M347.32,127.41a.31.31,0,0,1-.2-.07,2.8,2.8,0,0,0-2.47-.45.35.35,0,0,1-.25-.65,3.45,3.45,0,0,1,3.13.54.36.36,0,0,1,.08.49A.37.37,0,0,1,347.32,127.41Z" style="fill:#263238"></path><path d="M364.35,137.52c-1.06,5.38-2.11,15.23,1.65,18.81,0,0-1.47,5.45-11.45,5.45-11,0-5.25-5.45-5.25-5.45,6-1.43,5.84-5.87,4.79-10.05Z" style="fill:#b55b52"></path><path d="M367.44,158.2c.79-1.72,1.66-3.7-.14-4.32-2-.68-12.76-1.37-16.49-.09a3.84,3.84,0,0,0-2.66,4.78Z" style="fill:#263238"></path><path d="M410.8,392.83c-.54.52-1.15.94-1.61.87a.72.72,0,0,1-.57-.6.8.8,0,0,1,.12-.67c.6-.93,3-1.33,3.13-1.34a.18.18,0,0,1,.17.07.17.17,0,0,1,0,.19A9.23,9.23,0,0,1,410.8,392.83Zm-1.63-.38a1,1,0,0,0-.14.16.48.48,0,0,0-.07.4c.08.31.23.34.28.34.51.08,1.6-1,2.27-1.84A5.77,5.77,0,0,0,409.17,392.45Z" style="fill:#1C1559"></path><path d="M412,391.38l-.08.05c-.83.22-3,.08-3.46-.62a.59.59,0,0,1,.08-.72,1,1,0,0,1,.69-.35c1.1-.08,2.69,1.33,2.76,1.39a.16.16,0,0,1,.05.17A.12.12,0,0,1,412,391.38Zm-3.13-1.12-.06.06c-.14.17-.08.26-.06.3.27.41,1.79.64,2.73.53a4.31,4.31,0,0,0-2.22-1.06A.59.59,0,0,0,408.89,390.26Z" style="fill:#1C1559"></path><path d="M346.46,409.11c-.94,0-1.85-.13-2.15-.55a.64.64,0,0,1,0-.76.87.87,0,0,1,.55-.41c1.22-.33,3.79,1.13,3.9,1.2a.16.16,0,0,1,.08.18.17.17,0,0,1-.13.14A13.43,13.43,0,0,1,346.46,409.11Zm-1.16-1.42a1.22,1.22,0,0,0-.34,0,.51.51,0,0,0-.34.24c-.12.22-.08.33,0,.39.34.47,2.2.48,3.56.29A7.82,7.82,0,0,0,345.3,407.69Z" style="fill:#1C1559"></path><path d="M348.68,408.91h-.07c-.88-.4-2.64-2-2.51-2.82,0-.2.17-.44.65-.49a1.33,1.33,0,0,1,1,.3c.93.77,1.13,2.75,1.14,2.83a.21.21,0,0,1-.08.16A.17.17,0,0,1,348.68,408.91Zm-1.79-3h-.1c-.32,0-.34.15-.34.19-.08.5,1.11,1.75,2,2.29a4,4,0,0,0-1-2.26A.92.92,0,0,0,346.89,405.93Z" style="fill:#1C1559"></path><path d="M411.7,390.27l6-5.71a.63.63,0,0,1,.8-.07l5.56,3.72a1.07,1.07,0,0,1,.12,1.68c-2.11,2-3.24,2.81-5.86,5.31-1.62,1.55-6.44,6.8-8.67,8.94s-4.63.2-3.91-.87c3.24-4.81,5.26-9.42,5.44-11.85A1.84,1.84,0,0,1,411.7,390.27Z" style="fill:#263238"></path><path d="M349.46,407.89h8a.63.63,0,0,1,.62.5l1.45,6.53a1.06,1.06,0,0,1-1.05,1.3c-2.9,0-7.08-.21-10.72-.21-4.25,0-7.92.23-12.91.23-3,0-3.85-3.05-2.59-3.33,5.74-1.25,10.44-1.39,15.4-4.45A3.44,3.44,0,0,1,349.46,407.89Z" style="fill:#263238"></path><path d="M339,173c-2.92,4.3-5.93,8.32-9.17,12.29a138.12,138.12,0,0,1-10.41,11.48L318,198.15l-.36.34-.26.24L317,199a9.7,9.7,0,0,1-1.51,1,13.46,13.46,0,0,1-5.45,1.53,30.69,30.69,0,0,1-8.66-.72,65.23,65.23,0,0,1-14.85-5.22l1.84-5.2a116.73,116.73,0,0,0,14.18,1.94,26.15,26.15,0,0,0,6.27-.26,4,4,0,0,0,1.66-.65c.05,0,0-.06,0-.06h0s0,0,0,0l.08-.08.29-.33,1.19-1.3c3.12-3.56,6.15-7.36,9.09-11.24s5.89-7.86,8.7-11.74Z" style="fill:#b55b52"></path><path d="M379.16,158c6.88,1.58,14.78,20.35,14.78,20.35l-13.83,9.48A115.93,115.93,0,0,1,371,172.29C366.9,163.7,372.12,156.38,379.16,158Z" style="fill:#1C1559"></path><path d="M374.22,170l6.54,17.41-.65.45s-2.83-4-5.89-9.33Z" style="opacity:0.30000000000000004"></path><path d="M338,158.37s-7.82,8.83-.43,63.5h39.29c.27-6-3.52-35.46,2.3-63.88A102.86,102.86,0,0,0,366,156.33a145.27,145.27,0,0,0-16.7,0A73.5,73.5,0,0,0,338,158.37Z" style="fill:#1C1559"></path><path d="M342.36,174.18A34.86,34.86,0,0,1,334.6,191c-.16-3.52-.22-6.68-.21-9.51Z" style="opacity:0.30000000000000004"></path><path d="M345.75,164.33c1,6.95-12.74,24.72-12.74,24.72l-13.77-9.48s3.82-9.79,10.25-16.21C336.84,156,344.7,156.76,345.75,164.33Z" style="fill:#1C1559"></path><path d="M289.32,191l-5.39-5.57-5.75,7.41s4.38,4.23,9.59,3Z" style="fill:#b55b52"></path><polygon points="276.53 182.33 274.06 190.11 278.18 192.81 283.93 185.4 276.53 182.33" style="fill:#b55b52"></polygon><path d="M365,129.44c-.45,7.27-.34,11.56-4,15.29-5.53,5.62-14.51,2.29-16.24-5-1.57-6.54-.57-17.34,6.55-20.23A9.94,9.94,0,0,1,365,129.44Z" style="fill:#b55b52"></path><path d="M371.33,114.25c2.24,2.06,1.29,4.36.12,4.79,3.63.75,4.16,3.64,2.25,9.74-1.82,5.84-6.23,13.67-11.74,14.15-8.28.72-10.7-7.91-10.76-16.47-4.68.29-2.66-3.86-8.41-2.9-5,.83-3.12-3.07-7.37-4.77-4.93-2-3.94-9.55.66-7.38,0,0-2.13,1.4.35,2.72s2.24-1.73,7.15-2.1,5.48,3.83,11.22,1.3C362,110.15,366.73,110,371.33,114.25Z" style="fill:#263238"></path><path d="M368.57,119a2.87,2.87,0,0,1,3.19-1.25c2.25.48,2.43,1.47,3.84,1.34s.9,1.37.9,1.37-.38-1.13-2.08-.5-2.81-.91-3.54-.22S368.57,119,368.57,119Z" style="fill:#263238"></path><path d="M355.12,131.42a8.15,8.15,0,0,1-2.57,4.62c-1.78,1.58-3.32.31-3.38-1.85,0-1.95.83-5.13,2.88-5.89S355.49,129.26,355.12,131.42Z" style="fill:#b55b52"></path><path d="M351.5,221.87S359.84,278,364.42,299c5,23,39.85,84.2,39.85,84.2l12.8-4.16s-27.75-55.14-30.61-77.95c-3.11-24.75-9.6-79.26-9.6-79.26Z" style="fill:#263238"></path><path d="M400.69,379.2c-.05,0,2.93,4.48,2.93,4.48L418,379l-1.69-4.3Z" style="fill:#1C1559"></path><path d="M356.77,241.87c9.64,1.89,8.62,37.84,7.46,56.33-2.78-13.07-6.85-38.22-9.63-56.07A3.29,3.29,0,0,1,356.77,241.87Z" style="opacity:0.30000000000000004"></path><path d="M337.57,221.87s-1,54.93-.22,77.33c.83,23.3,9,99.6,9,99.6h12.45s.45-74.94,1-97.82c.6-25,3.61-79.11,3.61-79.11Z" style="fill:#263238"></path><path d="M343.93,393.84c-.06,0,.7,5.17.7,5.17h15.14l.41-4.61Z" style="fill:#1C1559"></path></g></svg>