<?xml version="1.0" encoding="UTF-8"?>
<!DOCTYPE svg PUBLIC "-//W3C//DTD SVG 1.1//EN" "http://www.w3.org/Graphics/SVG/1.1/DTD/svg11.dtd">
<!-- Creator: CorelDRAW X8 -->
<svg xmlns="http://www.w3.org/2000/svg" xml:space="preserve" width="210mm" height="297mm" version="1.1" style="shape-rendering:geometricPrecision; text-rendering:geometricPrecision; image-rendering:optimizeQuality; fill-rule:evenodd; clip-rule:evenodd"
viewBox="0 0 21000 29700"
 xmlns:xlink="http://www.w3.org/1999/xlink">
 <defs>
  <style type="text/css">
   <![CDATA[
    .fil2 {fill:black}
    .fil8 {fill:#432E7D}
    .fil10 {fill:url(#id0)}
    .fil11 {fill:url(#id1)}
    .fil6 {fill:url(#id2)}
    .fil3 {fill:url(#id3)}
    .fil7 {fill:url(#id4)}
    .fil1 {fill:url(#id5)}
    .fil4 {fill:url(#id6)}
    .fil12 {fill:url(#id7)}
    .fil5 {fill:url(#id8)}
    .fil9 {fill:url(#id9)}
    .fil0 {fill:url(#id10)}
   ]]>
  </style>
  <linearGradient id="id0" gradientUnits="userSpaceOnUse" x1="9614.43" y1="7958.54" x2="11197.9" y2="7958.54">
   <stop offset="0" style="stop-opacity:1; stop-color:#624697"/>
   <stop offset="0.65098" style="stop-opacity:1; stop-color:#9671C2"/>
   <stop offset="1" style="stop-opacity:1; stop-color:#CA9DED"/>
  </linearGradient>
  <linearGradient id="id1" gradientUnits="userSpaceOnUse" x1="3503.36" y1="7960.58" x2="5086.79" y2="7960.58">
   <stop offset="0" style="stop-opacity:1; stop-color:#774FAC"/>
   <stop offset="1" style="stop-opacity:1; stop-color:#593C90"/>
  </linearGradient>
  <linearGradient id="id2" gradientUnits="userSpaceOnUse" x1="8033.43" y1="8398.03" x2="10507.3" y2="7092.38">
   <stop offset="0" style="stop-opacity:1; stop-color:#2A1E66"/>
   <stop offset="0.611765" style="stop-opacity:1; stop-color:#6F4BA5"/>
   <stop offset="1" style="stop-opacity:1; stop-color:#B578E5"/>
  </linearGradient>
  <linearGradient id="id3" gradientUnits="userSpaceOnUse" x1="6653.21" y1="11482.6" x2="8044.59" y2="10833.9">
   <stop offset="0" style="stop-opacity:1; stop-color:#8659BA"/>
   <stop offset="0.419608" style="stop-opacity:1; stop-color:#6947A0"/>
   <stop offset="1" style="stop-opacity:1; stop-color:#4C3485"/>
  </linearGradient>
  <linearGradient id="id4" gradientUnits="userSpaceOnUse" x1="4151.91" y1="8339.45" x2="6625.78" y2="7033.8">
   <stop offset="0" style="stop-opacity:1; stop-color:#66449D"/>
   <stop offset="0.611765" style="stop-opacity:1; stop-color:#422D7C"/>
   <stop offset="1" style="stop-opacity:1; stop-color:#1D165A"/>
  </linearGradient>
  <linearGradient id="id5" gradientUnits="userSpaceOnUse" x1="8731.8" y1="10913.4" x2="10003.8" y2="9101.72">
   <stop offset="0" style="stop-opacity:1; stop-color:#432E7C"/>
   <stop offset="0.25098" style="stop-opacity:1; stop-color:#493282"/>
   <stop offset="0.419608" style="stop-opacity:1; stop-color:#1C1559"/>
   <stop offset="1" style="stop-opacity:1; stop-color:#4F3688"/>
  </linearGradient>
  <linearGradient id="id6" gradientUnits="userSpaceOnUse" x1="8298.18" y1="5660.23" x2="9301.37" y2="6065.32">
   <stop offset="0" style="stop-opacity:1; stop-color:#7D58AF"/>
   <stop offset="1" style="stop-opacity:1; stop-color:#A36CD5"/>
  </linearGradient>
  <linearGradient id="id7" gradientUnits="userSpaceOnUse" x1="4508.25" y1="9081.73" x2="6147.28" y2="10933.4">
   <stop offset="0" style="stop-opacity:1; stop-color:#503485"/>
   <stop offset="1" style="stop-opacity:1; stop-color:#B074E1"/>
  </linearGradient>
  <linearGradient id="id8" gradientUnits="userSpaceOnUse" x1="5393.98" y1="5660.17" x2="6397.17" y2="6065.26">
   <stop offset="0" style="stop-opacity:1; stop-color:#483282"/>
   <stop offset="1" style="stop-opacity:1; stop-color:#271C63"/>
  </linearGradient>
  <linearGradient id="id9" gradientUnits="userSpaceOnUse" x1="5831.51" y1="10947.9" x2="6460.69" y2="10947.9">
   <stop offset="0" style="stop-opacity:1; stop-color:#7E54B3"/>
   <stop offset="0.560784" style="stop-opacity:1; stop-color:#895BBD"/>
   <stop offset="1" style="stop-opacity:1; stop-color:#9563C8"/>
  </linearGradient>
  <linearGradient id="id10" gradientUnits="userSpaceOnUse" x1="6197.27" y1="8154.38" x2="8850.34" y2="5421.83">
   <stop offset="0" style="stop-opacity:1; stop-color:#3F2B79"/>
   <stop offset="0.137255" style="stop-opacity:1; stop-color:#5C3E93"/>
   <stop offset="0.219608" style="stop-opacity:1; stop-color:#241A61"/>
   <stop offset="0.988235" style="stop-opacity:1; stop-color:#7951AE"/>
   <stop offset="1" style="stop-opacity:1; stop-color:#7951AE"/>
  </linearGradient>
 </defs>
 <g id="Camada_x0020_1">
  <metadata id="CorelCorpID_0Corel-Layer"/>
  <g id="_2282549042800">
   <path class="fil0" d="M6261 7696c27,388 243,894 407,1179 145,255 503,795 676,921 95,-55 415,-482 455,-563 171,-193 397,-668 491,-935 127,-357 178,-680 164,-1064 -30,-639 -362,-1365 -721,-1832 -106,-138 -276,-392 -389,-457 -658,587 -1238,1837 -1083,2751z"/>
   <path class="fil1" d="M9340 9457c-657,-41 -1548,407 -1730,541 145,172 872,436 1187,507 962,216 2090,-245 2328,-482 -278,-256 -1065,-598 -1785,-566z"/>
   <path class="fil2" d="M8718 13492l-2 209 806 0c0,580 -376,452 -881,452 -607,0 -732,56 -731,-584 1,-627 -28,-692 625,-692 207,1 461,-13 663,2 339,24 249,260 368,314l158 0c9,-285 -208,-499 -475,-522 -265,-22 -762,-16 -1033,-2 -294,16 -488,202 -513,483 -89,1024 67,1211 805,1211 436,0 1031,111 1191,-343 37,-108 60,-381 -9,-469 -88,-112 -783,-59 -972,-59zm1579 -214c0,-270 111,-401 381,-401 796,0 1231,-125 1231,401 0,512 85,875 -385,875 -1301,0 -1227,121 -1227,-875zm-193 688c50,227 248,385 519,396 289,13 638,8 929,1 289,-6 483,-142 546,-379 31,-114 32,-793 6,-914 -50,-236 -244,-392 -526,-402 -293,-10 -634,-7 -928,0 -286,7 -483,150 -543,383 -31,117 -31,790 -3,915zm-4635 -958c101,62 139,106 227,172l1095 890c229,193 294,294 499,292l0 -1692 -209 0 -1 1356 -1321 -1067c-216,-183 -307,-299 -500,-285l0 1685 210 4 0 -1355zm-2209 -118l0 1475 210 -14 0 -1472 833 0 1 -210 -1878 3 3 206 831 12zm1318 1467l210 6 0 -1694 -116 -2 -94 14 0 1676z"/>
   <path class="fil3" d="M7344 12125c173,-159 684,-1234 722,-1545l-722 -388c-234,121 -535,285 -712,388 107,424 421,1267 712,1545z"/>
   <path class="fil4" d="M9322 6105c-73,-328 -174,-605 -292,-888 -151,61 -636,359 -752,495 51,206 250,505 324,797l720 -404z"/>
   <path class="fil5" d="M5374 6105c72,-328 173,-605 291,-888 152,61 637,359 752,495 -51,206 -249,505 -323,797l-720 -404z"/>
   <path class="fil6" d="M7983 9487c277,-19 695,-174 1025,-291 1089,-546 1473,-2088 1549,-3192 -910,111 -1155,470 -1868,789 95,1277 -106,1653 -706,2694z"/>
   <path class="fil7" d="M6676 9463c-277,-19 -694,-174 -1025,-291 -1089,-546 -1473,-2088 -1549,-3192 910,111 1155,470 1868,789 -94,1277 106,1654 706,2694z"/>
   <path class="fil8" d="M8239 11023c202,88 334,131 570,186l59 -390 -518 -137 -111 341z"/>
   <path class="fil9" d="M6461 11025c-202,88 -334,132 -570,187l-59 -391 518 -137 111 341z"/>
   <path class="fil10" d="M9781 9022l-127 114c-35,38 -10,2 -40,52 227,23 338,76 434,-8 551,-480 1154,-1763 1150,-2476 -315,-16 -372,-44 -409,122 -181,803 -394,1608 -1008,2196z"/>
   <path class="fil11" d="M4920 9024l127 114c35,38 10,2 40,52 -226,23 -338,76 -434,-7 -551,-481 -1154,-1764 -1150,-2477 316,-16 372,-44 410,122 180,803 393,1608 1007,2196z"/>
   <path class="fil12" d="M5355 9457c658,-41 1548,407 1730,541 -145,172 -871,436 -1187,507 -962,216 -2089,-245 -2328,-482 278,-256 1065,-598 1785,-566z"/>
  </g>
 </g>
</svg>
